<svg xmlns="http://www.w3.org/2000/svg" width="122.386" height="91.563" viewBox="0 0 122.386 91.563">
  <g id="Group_26" data-name="Group 26" transform="translate(0 0)">
    <text id="cloudifytests" transform="translate(13.659 87.563)" fill="#0493d2" font-size="16" font-family="MyriadPro-Regular, Myriad Pro"><tspan x="0" y="0">cloudify</tspan><tspan y="0" fill="#272727" letter-spacing="-0.01em">t</tspan><tspan y="0" fill="#272727">ests</tspan></text>
    <g id="Layer_2" data-name="Layer 2" transform="translate(0 0)">
      <g id="graphic_elements" data-name="graphic elements" transform="translate(0 0)">
        <path id="Path_7" data-name="Path 7" d="M98.723,18.89a24.007,24.007,0,0,0-3.566.267,33.14,33.14,0,0,0-61.321,2.9c-.386-.036-.774-.053-1.157-.053a12.575,12.575,0,0,0-11.467,7.323A18.54,18.54,0,1,0,18.542,66.21H33.51c.383.007.76.011,1.138.011s.72,0,1.076-.011h.757V64.517c-.256.01-.515.017-.776.022H18.542a16.87,16.87,0,1,1,0-33.741,17.067,17.067,0,0,1,3.034.279l.671.123.253-.634a10.97,10.97,0,0,1,11.791-6.774l.7.1.219-.667A31.469,31.469,0,0,1,93.89,20.421l.265.6.647-.116a21.992,21.992,0,1,1,3.921,43.632H78.789V66.21H98.723a23.66,23.66,0,1,0,0-47.32Z" transform="translate(0 0.055)" fill="#0c0c0c"/>
      </g>
    </g>
    <g id="Layer_2-2" data-name="Layer 2" transform="translate(36.373 40.403)">
      <g id="Слой_1" data-name="Слой 1" transform="translate(0 0)">
        <path id="Path_8" data-name="Path 8" d="M17.616.419,15.252.013,15.2,0a.572.572,0,0,0-.645.406L14,2.335a.522.522,0,0,1-.034.091.562.562,0,0,1-.531.317,10,10,0,0,0-3.9.614.639.639,0,0,1-.157.033.581.581,0,0,1-.514-.249L7.928,1.755a.58.58,0,0,0-.554-.246.63.63,0,0,0-.191.061L5.017,2.712a.584.584,0,0,0-.264.746L5.622,5.5a.565.565,0,0,1-.1.6c-.208.238-.407.483-.595.743A9.938,9.938,0,0,0,4.02,8.366h0a.577.577,0,0,1-.57.327L1.2,8.5l-.111-.008a.564.564,0,0,0-.6.466L.068,11.377a.59.59,0,0,0,.417.665l2.144.614a.571.571,0,0,1,.415.526,10.027,10.027,0,0,0,.629,3.027.573.573,0,0,1-.218.673L1.81,17.993a.584.584,0,0,0-.188.758l1.151,2.176a.558.558,0,0,0,.711.252L5.892,20.16a.586.586,0,0,1,.61.094q.311.268.649.513a10.176,10.176,0,0,0,1.314.809.554.554,0,0,1,.307.549L8.538,24.83a.574.574,0,0,0,.474.614l2.425.419a.577.577,0,0,0,.616-.328.379.379,0,0,0,.028-.078l.682-2.378a.568.568,0,0,1,.475-.414.353.353,0,0,1,.06-.006,1.789,1.789,0,0,0,.18-.01,9.984,9.984,0,0,0,2.109-.326.554.554,0,0,1,.61.232l1.175,1.732a.583.583,0,0,0,.756.186l.482-.254,1.68-.89a.575.575,0,0,0,.262-.733l-.856-2.016a.554.554,0,0,1,.132-.623,10.1,10.1,0,0,0,1.238-1.411,9.874,9.874,0,0,0,.743-1.194l.472.041,1.937.162a.554.554,0,0,0,.558-.325.5.5,0,0,0,.043-.141l.424-2.432a.579.579,0,0,0-.408-.646l-1.465-.417a.573.573,0,0,1-.413-.563,10.072,10.072,0,0,0-.4-3.145.554.554,0,0,1,.222-.627l2.074-1.4a.554.554,0,0,0,.177-.713l-1.164-2.2a.558.558,0,0,0-.716-.256l-2.5,1.06a.569.569,0,0,1-.632-.124,9.706,9.706,0,0,0-1.171-.992q-.342-.248-.7-.463a.577.577,0,0,1-.277-.535l.222-2.593a.583.583,0,0,0-.474-.623ZM9.037,9.064A6.168,6.168,0,0,1,10.7,7.784a3.513,3.513,0,0,1,.483-.211,5.429,5.429,0,0,1,4.284,9.949c-.076.043-.153.085-.232.126a5.246,5.246,0,0,1-2.827.451,6.707,6.707,0,0,1-1.2-.318A5.388,5.388,0,0,1,9.037,9.064Z" transform="translate(-0.06 0.004)" fill="#2e2e2e"/>
      </g>
    </g>
    <g id="Layer_2-3" data-name="Layer 2" transform="translate(63.001 43.937)">
      <g id="Слой_1-2" data-name="Слой 1" transform="translate(0 0)">
        <path id="Path_8-2" data-name="Path 8" d="M12.237.289,10.6.008,10.559,0a.4.4,0,0,0-.447.281L9.729,1.618a.362.362,0,0,1-.024.063.39.39,0,0,1-.368.22,6.937,6.937,0,0,0-2.707.426.443.443,0,0,1-.109.023.4.4,0,0,1-.356-.173l-.646-.961a.4.4,0,0,0-.385-.17A.437.437,0,0,0,5,1.088L3.5,1.88a.405.405,0,0,0-.183.517l.6,1.42a.392.392,0,0,1-.07.416c-.144.165-.282.335-.413.516A6.893,6.893,0,0,0,2.807,5.8h0a.4.4,0,0,1-.4.226L.85,5.9.773,5.891a.391.391,0,0,0-.419.323L.066,7.89a.41.41,0,0,0,.289.461l1.487.426a.4.4,0,0,1,.288.365,6.955,6.955,0,0,0,.436,2.1.4.4,0,0,1-.151.467l-1.14.771A.4.4,0,0,0,1.143,13l.8,1.509a.387.387,0,0,0,.493.175l1.67-.706a.407.407,0,0,1,.423.065q.216.186.45.356a7.059,7.059,0,0,0,.912.561.385.385,0,0,1,.213.381L5.94,17.222a.4.4,0,0,0,.329.426l1.682.29a.4.4,0,0,0,.428-.228.263.263,0,0,0,.02-.054l.473-1.649a.394.394,0,0,1,.33-.287.246.246,0,0,1,.042,0,1.241,1.241,0,0,0,.125-.007,6.925,6.925,0,0,0,1.463-.226.385.385,0,0,1,.423.161l.815,1.2a.4.4,0,0,0,.524.129l.335-.176,1.165-.617a.4.4,0,0,0,.181-.509l-.594-1.4a.385.385,0,0,1,.092-.432,7,7,0,0,0,.859-.979,6.849,6.849,0,0,0,.515-.828l.328.028,1.344.113a.384.384,0,0,0,.387-.225.346.346,0,0,0,.03-.1l.294-1.687a.4.4,0,0,0-.283-.448l-1.016-.289a.4.4,0,0,1-.286-.39,6.986,6.986,0,0,0-.277-2.181.384.384,0,0,1,.154-.435l1.438-.974a.385.385,0,0,0,.123-.495l-.807-1.524a.387.387,0,0,0-.5-.178l-1.737.736A.4.4,0,0,1,13.9,3.9a6.732,6.732,0,0,0-.812-.688q-.237-.172-.483-.321a.4.4,0,0,1-.192-.371l.154-1.8a.4.4,0,0,0-.329-.432Zm-5.951,6A4.278,4.278,0,0,1,7.44,5.4a2.437,2.437,0,0,1,.335-.146,3.766,3.766,0,0,1,2.971,6.9c-.053.03-.106.059-.161.088a3.639,3.639,0,0,1-1.961.313,4.653,4.653,0,0,1-.835-.221A3.738,3.738,0,0,1,6.286,6.286Z" transform="translate(-0.06 0.004)" fill="#2e2e2e"/>
      </g>
    </g>
    <g id="Layer_2-4" data-name="Layer 2" transform="translate(50.406 23.915)">
      <g id="Слой_1-3" data-name="Слой 1" transform="translate(0 0)">
        <path id="Path_8-3" data-name="Path 8" d="M12.237.289,10.6.008,10.559,0a.4.4,0,0,0-.447.281L9.729,1.618a.362.362,0,0,1-.024.063.39.39,0,0,1-.368.22,6.937,6.937,0,0,0-2.707.426.443.443,0,0,1-.109.023.4.4,0,0,1-.356-.173l-.646-.961a.4.4,0,0,0-.385-.17A.437.437,0,0,0,5,1.088L3.5,1.88a.405.405,0,0,0-.183.517l.6,1.42a.392.392,0,0,1-.07.416c-.144.165-.282.335-.413.516A6.893,6.893,0,0,0,2.807,5.8h0a.4.4,0,0,1-.4.226L.85,5.9.773,5.891a.391.391,0,0,0-.419.323L.066,7.89a.41.41,0,0,0,.289.461l1.487.426a.4.4,0,0,1,.288.365,6.955,6.955,0,0,0,.436,2.1.4.4,0,0,1-.151.467l-1.14.771A.4.4,0,0,0,1.143,13l.8,1.509a.387.387,0,0,0,.493.175l1.67-.706a.407.407,0,0,1,.423.065q.216.186.45.356a7.059,7.059,0,0,0,.912.561.385.385,0,0,1,.213.381L5.94,17.222a.4.4,0,0,0,.329.426l1.682.29a.4.4,0,0,0,.428-.228.263.263,0,0,0,.02-.054l.473-1.649a.394.394,0,0,1,.33-.287.246.246,0,0,1,.042,0,1.241,1.241,0,0,0,.125-.007,6.925,6.925,0,0,0,1.463-.226.385.385,0,0,1,.423.161l.815,1.2a.4.4,0,0,0,.524.129l.335-.176,1.165-.617a.4.4,0,0,0,.181-.509l-.594-1.4a.385.385,0,0,1,.092-.432,7,7,0,0,0,.859-.979,6.849,6.849,0,0,0,.515-.828l.328.028,1.344.113a.384.384,0,0,0,.387-.225.346.346,0,0,0,.03-.1l.294-1.687a.4.4,0,0,0-.283-.448l-1.016-.289a.4.4,0,0,1-.286-.39,6.986,6.986,0,0,0-.277-2.181.384.384,0,0,1,.154-.435l1.438-.974a.385.385,0,0,0,.123-.495l-.807-1.524a.387.387,0,0,0-.5-.178l-1.737.736A.4.4,0,0,1,13.9,3.9a6.732,6.732,0,0,0-.812-.688q-.237-.172-.483-.321a.4.4,0,0,1-.192-.371l.154-1.8a.4.4,0,0,0-.329-.432Zm-5.951,6A4.278,4.278,0,0,1,7.44,5.4a2.437,2.437,0,0,1,.335-.146,3.766,3.766,0,0,1,2.971,6.9c-.053.03-.106.059-.161.088a3.639,3.639,0,0,1-1.961.313,4.653,4.653,0,0,1-.835-.221A3.738,3.738,0,0,1,6.286,6.286Z" transform="translate(-0.06 0.004)" fill="#2e2e2e"/>
      </g>
    </g>
  </g>
</svg>
